<svg width="406" height="133" viewBox="0 0 406 133" fill="none" xmlns="http://www.w3.org/2000/svg">
<path d="M260.5 17.9999H205L202 33.4999H234L202 88.9999L219.5 89.146L260.5 17.9999Z" fill="#87B391"/>
<path d="M146 16.9999L72.4999 1.49988L7.49994 115L82.4999 132L146 16.9999Z" fill="#87B391"/>
<path d="M182.5 87.7499L238 111.147V123.315L180.323 98.9999L175 126.5H161L182 17.9999H196L182.5 87.7499Z" fill="#87B391"/>
<path d="M65.4999 3L35.9999 55L1.49994 18L65.4999 3Z" fill="#DDFFE4"/>
<path d="M118.5 78.5L88.9999 131L152 115L118.5 78.5Z" fill="#DDFFE4"/>
<path d="M329.5 53.5L367.5 16L405 53.5L367.5 92L329.5 53.5Z" fill="#DDFFE4"/>
<path d="M254 53.5L292 16L329.5 53.5L292 92L254 53.5Z" fill="#DDFFE4"/>
<path d="M345 53.5L367.5 31.5L390 53.5L367.5 77L345 53.5Z" fill="white"/>
<path d="M269.5 53.5L292 31.5L314.5 53.5L292 77L269.5 53.5Z" fill="white"/>
<path d="M264.356 74.5H239.856L231.5 89H256L264.356 74.5Z" fill="#DDFFE4"/>
<path d="M329.5 53.5L367.5 16L405 53.5L367.5 92L329.5 53.5ZM329.5 53.5L292 92L254 53.5L292 16L329.5 53.5ZM205 17.9999H260.5L219.5 89.146L202 88.9999L234 33.4999H202L205 17.9999ZM72.4999 1.49988L146 16.9999L82.4999 132L7.49994 115L72.4999 1.49988ZM196 17.9999H182L161 126.5H175L180.323 98.9999L238 123.315V111.147L182.5 87.7499L196 17.9999ZM35.9999 55L65.4999 3L1.49994 18L35.9999 55ZM88.9999 131L118.5 78.5L152 115L88.9999 131ZM367.5 31.5L345 53.5L367.5 77L390 53.5L367.5 31.5ZM292 31.5L269.5 53.5L292 77L314.5 53.5L292 31.5ZM239.856 74.5H264.356L256 89H231.5L239.856 74.5Z" stroke="black"/>
</svg>
