<svg width="32" height="27" viewBox="0 0 32 27" fill="none" xmlns="http://www.w3.org/2000/svg">
<path d="M8 26V12" stroke="#FFB700" stroke-width="2" stroke-linecap="round"/>
<path d="M24 26V12" stroke="#FFB700" stroke-width="2" stroke-linecap="round"/>
<rect x="1" y="1" width="30" height="10" rx="5" stroke="#FFB700" stroke-width="2"/>
<path d="M11.2069 2.7C11.3389 2.7 11.4679 2.748 11.5939 2.844C11.7259 2.94 11.7919 3.069 11.7919 3.231C11.7919 3.345 11.7499 3.459 11.6659 3.573L8.2189 8.001L8.1109 7.965H11.1169C11.2729 7.965 11.4019 8.013 11.5039 8.109C11.6119 8.199 11.6659 8.322 11.6659 8.478C11.6659 8.628 11.6119 8.754 11.5039 8.856C11.4019 8.952 11.2729 9 11.1169 9H7.1659C7.0099 9 6.8749 8.946 6.7609 8.838C6.6469 8.724 6.5899 8.601 6.5899 8.469C6.5899 8.355 6.6319 8.241 6.7159 8.127L10.1719 3.681L10.2529 3.735H7.5259C7.3699 3.735 7.2379 3.687 7.1299 3.591C7.0279 3.495 6.9769 3.369 6.9769 3.213C6.9769 3.057 7.0279 2.934 7.1299 2.844C7.2379 2.748 7.3699 2.7 7.5259 2.7H11.2069ZM18.5379 5.85C18.5379 6.3 18.4629 6.72 18.3129 7.11C18.1629 7.5 17.9499 7.845 17.6739 8.145C17.4039 8.439 17.0799 8.67 16.7019 8.838C16.3299 9.006 15.9219 9.09 15.4779 9.09C15.0339 9.09 14.6259 9.006 14.2539 8.838C13.8819 8.67 13.5579 8.439 13.2819 8.145C13.0119 7.845 12.8019 7.5 12.6519 7.11C12.5019 6.72 12.4269 6.3 12.4269 5.85C12.4269 5.4 12.5019 4.98 12.6519 4.59C12.8019 4.2 13.0119 3.858 13.2819 3.564C13.5579 3.264 13.8819 3.03 14.2539 2.862C14.6259 2.694 15.0339 2.61 15.4779 2.61C15.9219 2.61 16.3299 2.694 16.7019 2.862C17.0799 3.03 17.4039 3.264 17.6739 3.564C17.9499 3.858 18.1629 4.2 18.3129 4.59C18.4629 4.98 18.5379 5.4 18.5379 5.85ZM17.3679 5.85C17.3679 5.448 17.2869 5.085 17.1249 4.761C16.9629 4.431 16.7409 4.17 16.4589 3.978C16.1769 3.786 15.8499 3.69 15.4779 3.69C15.1059 3.69 14.7789 3.786 14.4969 3.978C14.2149 4.17 13.9929 4.428 13.8309 4.752C13.6749 5.076 13.5969 5.442 13.5969 5.85C13.5969 6.252 13.6749 6.618 13.8309 6.948C13.9929 7.272 14.2149 7.53 14.4969 7.722C14.7789 7.914 15.1059 8.01 15.4779 8.01C15.8499 8.01 16.1769 7.914 16.4589 7.722C16.7409 7.53 16.9629 7.272 17.1249 6.948C17.2869 6.618 17.3679 6.252 17.3679 5.85ZM25.367 5.85C25.367 6.3 25.292 6.72 25.142 7.11C24.992 7.5 24.779 7.845 24.503 8.145C24.233 8.439 23.909 8.67 23.531 8.838C23.159 9.006 22.751 9.09 22.307 9.09C21.863 9.09 21.455 9.006 21.083 8.838C20.711 8.67 20.387 8.439 20.111 8.145C19.841 7.845 19.631 7.5 19.481 7.11C19.331 6.72 19.256 6.3 19.256 5.85C19.256 5.4 19.331 4.98 19.481 4.59C19.631 4.2 19.841 3.858 20.111 3.564C20.387 3.264 20.711 3.03 21.083 2.862C21.455 2.694 21.863 2.61 22.307 2.61C22.751 2.61 23.159 2.694 23.531 2.862C23.909 3.03 24.233 3.264 24.503 3.564C24.779 3.858 24.992 4.2 25.142 4.59C25.292 4.98 25.367 5.4 25.367 5.85ZM24.197 5.85C24.197 5.448 24.116 5.085 23.954 4.761C23.792 4.431 23.57 4.17 23.288 3.978C23.006 3.786 22.679 3.69 22.307 3.69C21.935 3.69 21.608 3.786 21.326 3.978C21.044 4.17 20.822 4.428 20.66 4.752C20.504 5.076 20.426 5.442 20.426 5.85C20.426 6.252 20.504 6.618 20.66 6.948C20.822 7.272 21.044 7.53 21.326 7.722C21.608 7.914 21.935 8.01 22.307 8.01C22.679 8.01 23.006 7.914 23.288 7.722C23.57 7.53 23.792 7.272 23.954 6.948C24.116 6.618 24.197 6.252 24.197 5.85Z" fill="#FFB700"/>
</svg>
