<svg width="64" height="64" viewBox="0 0 64 64" fill="none" xmlns="http://www.w3.org/2000/svg">
<path d="M64 32C64 39.5676 61.3731 46.5216 56.9815 52C51.117 59.3157 42.1055 64 32 64C21.8945 64 12.883 59.3157 7.01852 52C2.62687 46.5216 0 39.5676 0 32C0 14.3269 14.3269 0 32 0C49.6731 0 64 14.3269 64 32Z" fill="#859D58"/>
<path d="M7.01852 52C12.883 59.3157 21.8945 64 32 64C42.1055 64 51.117 59.3157 56.9815 52C50 44 42 42 32 42C22 42 14 44 7.01852 52Z" fill="#FFB700"/>
<path d="M20.5 22C20.5 15.6487 25.6487 10.5 32 10.5C38.3513 10.5 43.5 15.6487 43.5 22C43.5 28.3513 38.3513 33.5 32 33.5C25.6487 33.5 20.5 28.3513 20.5 22Z" fill="#FFB700"/>
<path d="M32 62.75C22.6704 62.75 14.3117 58.5964 8.67054 52.0333C15.1586 45.0569 22.5532 43.25 32 43.25C41.4468 43.25 48.8414 45.0569 55.3295 52.0333C49.6883 58.5965 41.3296 62.75 32 62.75ZM62.75 32C62.75 38.7458 60.5791 44.9817 56.8971 50.051C49.8328 42.6212 41.7322 40.75 32 40.75C22.2678 40.75 14.1672 42.6212 7.10292 50.051C3.42087 44.9817 1.25 38.7458 1.25 32C1.25 15.0172 15.0172 1.25 32 1.25C48.9828 1.25 62.75 15.0172 62.75 32ZM32 32.25C26.3391 32.25 21.75 27.6609 21.75 22C21.75 16.3391 26.3391 11.75 32 11.75C37.6609 11.75 42.25 16.3391 42.25 22C42.25 27.6609 37.6609 32.25 32 32.25ZM19.25 22C19.25 29.0416 24.9584 34.75 32 34.75C39.0416 34.75 44.75 29.0416 44.75 22C44.75 14.9584 39.0416 9.25 32 9.25C24.9584 9.25 19.25 14.9584 19.25 22Z" stroke="#FFB700" stroke-width="2.5"/>
</svg>
