<svg width="32" height="32" viewBox="0 0 32 32" fill="none" xmlns="http://www.w3.org/2000/svg">
<path d="M16 31C12.2312 31 8.60043 29.5813 5.83008 27.026C3.05973 24.4708 1.35281 20.9662 1.04888 17.2097C0.744955 13.4531 1.8663 9.71977 4.18984 6.75237C6.51338 3.78498 9.86882 1.80101 13.5887 1.19514C17.3085 0.589265 21.1201 1.4059 24.2652 3.48257C27.4103 5.55925 29.6584 8.74378 30.5623 12.4026C31.4661 16.0615 30.9595 19.9265 29.1433 23.2289C27.327 26.5312 24.3341 29.0288 20.76 30.2248M13 24C14 21.5 18 21.5 19 24M10.0001 19.5C12.5001 14 19.5001 14 22.0001 19.5M7.00006 14.5C10.5001 6.5 21.5001 6.5 25.0001 14.5" stroke="#FFB700" stroke-width="2" stroke-linecap="round"/>
</svg>
